#!OML:ASF E:/inclinewalkrobotboard/Project1/Captureday1/Session1/subject1.ASF
:FULLY-SPECIFIED
:DEGREES
1
root 0 0 0 29.360903701553234 -33.835577938612204 -3.527570496179667
lowerback -15.995129463558964 3.0172937946931278 -5.726407872018774
upperback -9.553364623920773 4.353453246645498 -0.6500205460238142
thorax -1.6746259220089925 2.3507283155580296 3.0410844648922963
lowerneck -12.123423903894835 3.474567029069359 3.908158058392846
upperneck 34.693596317712306 2.659828801337226 2.842557552881736
head 13.794943226817558 1.984669393311341 0.9375034555317063
rclavicle 9.959747664227404E-15 6.742370157307283E-15
rhumerus -49.642696720613266 32.123679954220464 -97.6114745960528
rradius 34.90956629069894
rwrist -23.868450083407836
rhand 23.870382921844314 2.75124055919542
rfingers 7.125020000000035
rthumb 48.11410075367726 -18.935114884576738
lclavicle -4.709221998261845E-16 2.1647946291486757E-15
lhumerus -80.81784687544373 -45.72109591029954 125.362426592641
lradius 49.921388878152285
lwrist 35.618637570427026
lhand 26.803586294944477 22.36985385160146
lfingers 7.125020000000056
lthumb 50.80297480196468 43.15900561837289
rfemur -19.672078817575596 -6.602371282901089 22.230481063590375
rtibia 39.850963922662295
rfoot -3.1156321810013807 -30.28979070055498
rtoes 24.442985095821992
lfemur -44.20582059638774 1.0949078092376858 -31.88049214930322
ltibia 35.00211761758998
lfoot -48.307742060638475 27.522077207514062
ltoes 24.95313039748931
2
root 0 0 0 29.602290231507077 -33.639589959334266 -3.6996300790733825
lowerback -16.372907550655864 3.1215030914084174 -5.717428404111132
upperback -9.67781795465598 4.504499869988663 -0.5383631146765668
thorax -1.59983729788061 2.4302899544081065 3.175296781419891
lowerneck -12.12754170737898 3.5092180922343648 3.9055916434034224
upperneck 34.736930602881166 2.7139219275656403 2.869428770963104
head 13.808647015647677 2.0143018031135314 0.9488776213483973
rclavicle 9.975359755670573E-15 5.538620572918343E-15
rhumerus -50.51191919179469 31.885602572645645 -97.2224190390159
rradius 34.51647490662979
rwrist -22.983378581612953
rhand 23.98258990844922 2.7829942121487594
rfingers 7.125020000000036
rthumb 48.21921868705601 -18.880790794556205
lclavicle -2.2126319699843779E-16 1.0298277993196724E-15
lhumerus -80.87409497904292 -45.98979219711247 125.13522115058926
lradius 50.01625709124637
lwrist 35.508322227736414
lhand 26.76843182317527 22.38974624843312
lfingers 7.125020000000057
lthumb 50.769148330344365 43.183924856400964
rfemur -20.163957967797828 -5.786777513791193 22.73271904091702
rtibia 38.95060108780328
rfoot -2.843045531323664 -31.560792858082557
rtoes 26.49457785946567
lfemur -43.484689257984876 0.8651531228836369 -31.281435099571326
ltibia 34.48518877380665
lfoot -49.903999572717055 27.779722143065637
ltoes 26.288499068484146
3
root 0 0 0 30.135531406414074 -33.46815085697101 -4.048397517635631
lowerback -16.76896101993768 3.215333860611363 -5.631913846988361
upperback -9.846723701041943 4.636288139915234 -0.40125963618889493
thorax -1.5598872166006492 2.493990802339936 3.2851008906749057
lowerneck -12.159394453467502 3.4330223143215406 3.8322336050399275
upperneck 34.79583148555021 2.62111173077336 2.8564937442144176
head 13.837119341487856 1.969395636125613 0.944226996313539
rclavicle 9.875416826396936E-15 5.493134729824478E-15
rhumerus -51.14867366007407 31.086211240794988 -95.79659661546205
rradius 34.067368403761776
rwrist -21.806509108756877
rhand 23.875432757223017 2.7999545636244045
rfingers 7.1250200000000365
rthumb 48.11787851531061 -18.900298399773014
lclavicle -1.5770964850431353E-16 9.559332131485188E-16
lhumerus -80.5243258388583 -45.77801275835449 124.78783670109013
lradius 49.96765373719214
lwrist 35.27825190788958
lhand 26.72923274698796 22.359562885890387
lfingers 7.125020000000057
lthumb 50.73307505550479 43.17009515645811
rfemur -21.60485765213899 -4.6550622867059985 23.586046049334755
rtibia 38.61343238447296
rfoot -2.8993980322487793 -32.533323788091586
rtoes 28.509219575162696
lfemur -43.25711134906412 0.7871373527441321 -30.966268098010854
ltibia 34.37668071156522
lfoot -50.60554810360062 27.849979072119183
ltoes 26.935356214936995
4
root 0 0 0 30.884247187641307 -33.27787937551028 -4.564313342324405
lowerback -17.232358656935666 3.3270986947605374 -5.480027226091668
upperback -10.057673241500208 4.78994937766604 -0.23502228207388987
thorax -1.5252101451763442 2.5637411003078387 3.386711154749857
lowerneck -12.199839156755495 3.2852669161009675 3.7110322595397047
upperneck 34.88985332702275 2.4319335946784033 2.829346991270342
head 13.882410144468512 1.8770787238514468 0.9326446564567071
rclavicle 9.877212265513349E-15 5.307013131007093E-15
rhumerus -51.84435148959336 30.01323325045243 -93.99631843613781
rradius 33.56509771612741
rwrist -20.358931951059937
rhand 23.64988366491941 2.84757766129857
rfingers 7.125020000000038
rthumb 47.904095852585286 -18.916906677204175
lclavicle 4.1967065222988525E-17 7.991526288006144E-16
lhumerus -80.05742872395241 -45.335692023492285 124.27935950786352
lradius 49.89401939540732
lwrist 34.992143778957185
lhand 26.669982475798157 22.334982680736122
lfingers 7.125020000000057
lthumb 50.67842749327172 43.16912166131428
rfemur -23.32398566237262 -3.5252710315031663 24.50987707744892
rtibia 38.58010329767249
rfoot -3.1759774147718183 -33.14896167150991
rtoes 30.21795800835365
lfemur -43.21319623418 0.7540145167075174 -30.739677580103702
ltibia 34.37606293226649
lfoot -51.01267043235093 27.872096924920843
ltoes 27.365879909511545
5
root 0 0 0 32.07408362690618 -33.05637858285722 -5.488569507517082
lowerback -17.931094492868823 3.5189350402641457 -5.172510228298875
upperback -10.382904239082546 5.051688749046893 0.02941112186751127
thorax -1.4810701927314813 2.6798190027369584 3.5112118681554225
lowerneck -12.254123719868295 3.0156508942921727 3.5135700524875455
upperneck 35.09152850890956 2.074932442861145 2.794132708283251
head 13.97485291094451 1.7056154584147176 0.9099603418235837
rclavicle 9.911723560252544E-15 4.971814406434203E-15
rhumerus -52.882645998893835 28.332100498086014 -91.22220709250627
rradius 32.78752407924932
rwrist -17.909468399722712
rhand 23.19805370349433 2.954868713218538
rfingers 7.125020000000041
rthumb 47.47642220813838 -18.932630321210723
lclavicle 4.3583428846766786E-16 5.310233606855608E-16
lhumerus -79.17220581554682 -44.36599967859499 123.1901991598663
lradius 49.831523320170504
lwrist 34.574983111192566
lhand 26.55533657497008 22.365174234662412
lfingers 7.125020000000057
lthumb 50.57159168298912 43.24185656254302
rfemur -26.14572631534068 -1.8819291069868598 25.937819981891266
rtibia 38.90484363157577
rfoot -3.8545635590467953 -33.53629141733517
rtoes 32.228661256750215
lfemur -43.24043646915236 0.6996079370256538 -30.46170344949241
ltibia 34.363063567155244
lfoot -51.52271934134912 27.879614341220325
ltoes 27.836528680202008
